<mxfile host="app.diagrams.net" modified="2021-09-27T13:57:35.717Z" agent="5.0 (Windows NT 10.0; Win64; x64) AppleWebKit/537.36 (KHTML, like Gecko) Chrome/93.0.4577.82 Safari/537.36" etag="htJVM7Vw7N2RaHvHpRc2" version="15.2.9" type="github">
  <diagram id="m0jhYUX43kVfqd_45DZe" name="Page-1">
    <mxGraphModel dx="3567" dy="2581" grid="1" gridSize="10" guides="1" tooltips="1" connect="1" arrows="1" fold="1" page="1" pageScale="1" pageWidth="850" pageHeight="1100" math="0" shadow="0">
      <root>
        <mxCell id="0" />
        <mxCell id="1" parent="0" />
        <mxCell id="LJdBZqf7PGFSziv4PStR-32" value="" style="rounded=0;whiteSpace=wrap;html=1;strokeWidth=2;fontStyle=1" parent="1" vertex="1">
          <mxGeometry x="-730" y="486.22" width="270" height="112.78" as="geometry" />
        </mxCell>
        <mxCell id="qDFyCuyVWxihaTcqMEYJ-1" style="edgeStyle=orthogonalEdgeStyle;rounded=1;orthogonalLoop=1;jettySize=auto;html=1;exitX=0.5;exitY=1;exitDx=0;exitDy=0;entryX=0.5;entryY=0;entryDx=0;entryDy=0;strokeWidth=2;fontStyle=1;endArrow=blockThin;endFill=1;startArrow=none;startFill=0;" parent="1" source="Yrw_5gS3c1wIbg4zPTFx-1" target="Yrw_5gS3c1wIbg4zPTFx-2" edge="1">
          <mxGeometry relative="1" as="geometry">
            <Array as="points">
              <mxPoint x="-565" y="240" />
              <mxPoint x="-671" y="240" />
            </Array>
          </mxGeometry>
        </mxCell>
        <mxCell id="qDFyCuyVWxihaTcqMEYJ-17" style="edgeStyle=orthogonalEdgeStyle;rounded=0;orthogonalLoop=1;jettySize=auto;html=1;exitX=0.5;exitY=1;exitDx=0;exitDy=0;entryX=0.5;entryY=0;entryDx=0;entryDy=0;strokeWidth=2;fontStyle=1;endArrow=blockThin;endFill=1;startArrow=none;startFill=0;" parent="1" source="qDFyCuyVWxihaTcqMEYJ-16" target="Yrw_5gS3c1wIbg4zPTFx-1" edge="1">
          <mxGeometry relative="1" as="geometry" />
        </mxCell>
        <mxCell id="qDFyCuyVWxihaTcqMEYJ-27" value="" style="group;strokeWidth=2;fontStyle=1" parent="1" vertex="1" connectable="0">
          <mxGeometry x="-704.97" y="130" width="200" height="60" as="geometry" />
        </mxCell>
        <mxCell id="Yrw_5gS3c1wIbg4zPTFx-1" value="Cases with MDS Criteria Cognitive diagnosis" style="rounded=1;whiteSpace=wrap;html=1;fontStyle=1;strokeWidth=2;" parent="qDFyCuyVWxihaTcqMEYJ-27" vertex="1">
          <mxGeometry x="80" width="120" height="60" as="geometry" />
        </mxCell>
        <mxCell id="qDFyCuyVWxihaTcqMEYJ-28" value="" style="group;strokeWidth=2;fontStyle=1" parent="1" vertex="1" connectable="0">
          <mxGeometry x="-704.63" y="20" width="200" height="60" as="geometry" />
        </mxCell>
        <mxCell id="qDFyCuyVWxihaTcqMEYJ-16" value="Total PPMI de-novo PD cases&amp;nbsp;" style="rounded=1;whiteSpace=wrap;html=1;fontStyle=1;strokeWidth=2;" parent="qDFyCuyVWxihaTcqMEYJ-28" vertex="1">
          <mxGeometry x="85" width="110" height="60" as="geometry" />
        </mxCell>
        <mxCell id="LJdBZqf7PGFSziv4PStR-49" style="edgeStyle=orthogonalEdgeStyle;rounded=1;orthogonalLoop=1;jettySize=auto;html=1;exitX=0.5;exitY=1;exitDx=0;exitDy=0;entryX=0.5;entryY=0;entryDx=0;entryDy=0;strokeWidth=2;fontStyle=1;endArrow=blockThin;endFill=1;" parent="1" source="qDFyCuyVWxihaTcqMEYJ-38" target="LJdBZqf7PGFSziv4PStR-30" edge="1">
          <mxGeometry relative="1" as="geometry">
            <Array as="points">
              <mxPoint x="-469" y="461.22" />
              <mxPoint x="-520" y="461.22" />
            </Array>
          </mxGeometry>
        </mxCell>
        <mxCell id="qDFyCuyVWxihaTcqMEYJ-38" value="Dementia" style="rounded=1;whiteSpace=wrap;html=1;fontStyle=1;strokeWidth=2;" parent="1" vertex="1">
          <mxGeometry x="-504.63" y="394.55999999999995" width="70.69" height="42.22" as="geometry" />
        </mxCell>
        <mxCell id="qDFyCuyVWxihaTcqMEYJ-39" value="n= 44" style="text;html=1;strokeColor=none;fillColor=none;align=center;verticalAlign=middle;whiteSpace=wrap;rounded=0;fontStyle=1;strokeWidth=2;" parent="1" vertex="1">
          <mxGeometry x="-483.89000000000004" y="374.56000000000006" width="80" height="20" as="geometry" />
        </mxCell>
        <mxCell id="LJdBZqf7PGFSziv4PStR-14" style="edgeStyle=orthogonalEdgeStyle;rounded=0;orthogonalLoop=1;jettySize=auto;html=1;exitX=0.5;exitY=1;exitDx=0;exitDy=0;entryX=0.5;entryY=0;entryDx=0;entryDy=0;strokeWidth=2;fontStyle=1;endArrow=blockThin;endFill=1;startArrow=none;startFill=0;" parent="1" source="qDFyCuyVWxihaTcqMEYJ-46" target="qDFyCuyVWxihaTcqMEYJ-42" edge="1">
          <mxGeometry relative="1" as="geometry" />
        </mxCell>
        <mxCell id="LJdBZqf7PGFSziv4PStR-24" style="edgeStyle=orthogonalEdgeStyle;rounded=0;orthogonalLoop=1;jettySize=auto;html=1;exitX=0.5;exitY=1;exitDx=0;exitDy=0;entryX=0.5;entryY=0;entryDx=0;entryDy=0;strokeWidth=2;fontStyle=1;endArrow=blockThin;endFill=1;startArrow=none;startFill=0;" parent="1" source="Yrw_5gS3c1wIbg4zPTFx-2" target="qDFyCuyVWxihaTcqMEYJ-56" edge="1">
          <mxGeometry relative="1" as="geometry" />
        </mxCell>
        <mxCell id="LJdBZqf7PGFSziv4PStR-25" value="n= 45" style="text;html=1;strokeColor=none;fillColor=none;align=center;verticalAlign=middle;whiteSpace=wrap;rounded=0;fontStyle=1;strokeWidth=2;" parent="1" vertex="1">
          <mxGeometry x="-483.00252077562334" y="266.7788888888889" width="79.11357340720218" height="22.222222222222225" as="geometry" />
        </mxCell>
        <mxCell id="LJdBZqf7PGFSziv4PStR-33" value="" style="rounded=0;whiteSpace=wrap;html=1;strokeWidth=2;fontStyle=1" parent="1" vertex="1">
          <mxGeometry x="-420" y="486.22" width="270" height="112.78" as="geometry" />
        </mxCell>
        <mxCell id="qDFyCuyVWxihaTcqMEYJ-59" value="n= 68" style="text;html=1;strokeColor=none;fillColor=none;align=center;verticalAlign=middle;whiteSpace=wrap;rounded=0;fontStyle=1;strokeWidth=2;" parent="1" vertex="1">
          <mxGeometry x="-671.33" y="491.22" width="50" height="20" as="geometry" />
        </mxCell>
        <mxCell id="LJdBZqf7PGFSziv4PStR-4" value="n= 31" style="text;html=1;strokeColor=none;fillColor=none;align=center;verticalAlign=middle;whiteSpace=wrap;rounded=0;fontStyle=1;strokeWidth=2;" parent="1" vertex="1">
          <mxGeometry x="-560.3100000000001" y="266.78" width="39.11" height="22.22" as="geometry" />
        </mxCell>
        <mxCell id="qDFyCuyVWxihaTcqMEYJ-43" value="n= 22" style="text;html=1;strokeColor=none;fillColor=none;align=center;verticalAlign=middle;whiteSpace=wrap;rounded=0;fontStyle=1;strokeWidth=2;" parent="1" vertex="1">
          <mxGeometry x="-576.5489473684212" y="374.55999999999995" width="71.57894736842105" height="20" as="geometry" />
        </mxCell>
        <mxCell id="LJdBZqf7PGFSziv4PStR-37" value="Reverted to normal cognition" style="rounded=1;whiteSpace=wrap;html=1;fontStyle=1;spacingLeft=6;spacingBottom=0;spacingRight=7;strokeWidth=2;" parent="1" vertex="1">
          <mxGeometry x="-380" y="330.12" width="80" height="64.44" as="geometry" />
        </mxCell>
        <mxCell id="LJdBZqf7PGFSziv4PStR-31" value="n= 66" style="text;html=1;strokeColor=none;fillColor=none;align=center;verticalAlign=middle;whiteSpace=wrap;rounded=0;fontStyle=1;strokeWidth=2;" parent="1" vertex="1">
          <mxGeometry x="-540.0033333333333" y="491.22" width="85.33333333333333" height="20" as="geometry" />
        </mxCell>
        <mxCell id="Yrw_5gS3c1wIbg4zPTFx-2" value="Cases retaining only normal cognition from years 2-7" style="rounded=1;whiteSpace=wrap;html=1;fontStyle=1;spacingLeft=6;spacingRight=6;strokeWidth=2;" parent="1" vertex="1">
          <mxGeometry x="-720" y="289" width="98.67" height="87.78" as="geometry" />
        </mxCell>
        <mxCell id="qDFyCuyVWxihaTcqMEYJ-11" value="n= 423" style="text;html=1;strokeColor=none;fillColor=none;align=center;verticalAlign=middle;whiteSpace=wrap;rounded=0;fontStyle=1;strokeWidth=2;" parent="1" vertex="1">
          <mxGeometry x="-576.55" width="80" height="20" as="geometry" />
        </mxCell>
        <mxCell id="LJdBZqf7PGFSziv4PStR-51" style="edgeStyle=orthogonalEdgeStyle;rounded=1;orthogonalLoop=1;jettySize=auto;html=1;exitX=0.75;exitY=1;exitDx=0;exitDy=0;dashed=1;strokeWidth=2;fontStyle=1;endArrow=blockThin;endFill=1;startArrow=none;startFill=0;entryX=0;entryY=0.5;entryDx=0;entryDy=0;" parent="1" source="qDFyCuyVWxihaTcqMEYJ-46" target="LJdBZqf7PGFSziv4PStR-37" edge="1">
          <mxGeometry relative="1" as="geometry">
            <mxPoint x="-390" y="359" as="targetPoint" />
            <Array as="points">
              <mxPoint x="-547" y="362" />
              <mxPoint x="-420" y="362" />
            </Array>
          </mxGeometry>
        </mxCell>
        <mxCell id="qDFyCuyVWxihaTcqMEYJ-46" value="Developed &lt;br&gt;MCI" style="rounded=1;whiteSpace=wrap;html=1;fontStyle=1;strokeWidth=2;" parent="1" vertex="1">
          <mxGeometry x="-600.0000000000001" y="289" width="70.69" height="47.78" as="geometry" />
        </mxCell>
        <mxCell id="LJdBZqf7PGFSziv4PStR-46" style="edgeStyle=orthogonalEdgeStyle;rounded=1;orthogonalLoop=1;jettySize=auto;html=1;exitX=0.5;exitY=1;exitDx=0;exitDy=0;entryX=0.5;entryY=0;entryDx=0;entryDy=0;strokeWidth=2;fontStyle=1;endArrow=blockThin;endFill=1;startArrow=none;startFill=0;" parent="1" source="qDFyCuyVWxihaTcqMEYJ-42" target="LJdBZqf7PGFSziv4PStR-30" edge="1">
          <mxGeometry relative="1" as="geometry">
            <Array as="points">
              <mxPoint x="-565" y="461.22" />
              <mxPoint x="-520" y="461.22" />
            </Array>
          </mxGeometry>
        </mxCell>
        <mxCell id="qDFyCuyVWxihaTcqMEYJ-42" value="MCI" style="rounded=1;whiteSpace=wrap;html=1;fontStyle=1;strokeWidth=2;" parent="1" vertex="1">
          <mxGeometry x="-600.0000000000001" y="394.55999999999995" width="70.69" height="42.22" as="geometry" />
        </mxCell>
        <mxCell id="qDFyCuyVWxihaTcqMEYJ-56" value="Normal" style="rounded=1;whiteSpace=wrap;html=1;fontStyle=1;strokeWidth=2;" parent="1" vertex="1">
          <mxGeometry x="-713.3299999999999" y="519.22" width="85.33333333333333" height="60" as="geometry" />
        </mxCell>
        <mxCell id="LJdBZqf7PGFSziv4PStR-45" style="edgeStyle=orthogonalEdgeStyle;rounded=0;orthogonalLoop=1;jettySize=auto;html=1;exitX=0.5;exitY=1;exitDx=0;exitDy=0;entryX=0.5;entryY=0;entryDx=0;entryDy=0;strokeWidth=2;fontStyle=1;endArrow=blockThin;endFill=1;startArrow=none;startFill=0;" parent="1" source="qDFyCuyVWxihaTcqMEYJ-33" target="qDFyCuyVWxihaTcqMEYJ-38" edge="1">
          <mxGeometry relative="1" as="geometry">
            <mxPoint x="-430.2241274238229" y="383.44111111111124" as="targetPoint" />
          </mxGeometry>
        </mxCell>
        <mxCell id="qDFyCuyVWxihaTcqMEYJ-33" value="Developed Dementia" style="rounded=1;whiteSpace=wrap;html=1;fontStyle=1;strokeWidth=2;" parent="1" vertex="1">
          <mxGeometry x="-504.97" y="293" width="71.03" height="47.78" as="geometry" />
        </mxCell>
        <mxCell id="qDFyCuyVWxihaTcqMEYJ-15" value="n= 399" style="text;html=1;strokeColor=none;fillColor=none;align=center;verticalAlign=middle;whiteSpace=wrap;rounded=0;fontStyle=1;strokeWidth=2;" parent="1" vertex="1">
          <mxGeometry x="-576.55" y="110" width="80" height="20" as="geometry" />
        </mxCell>
        <mxCell id="LJdBZqf7PGFSziv4PStR-30" value="Impaired" style="rounded=1;whiteSpace=wrap;html=1;fontStyle=1;strokeWidth=2;" parent="1" vertex="1">
          <mxGeometry x="-562.31" y="519" width="85.33333333333333" height="60" as="geometry" />
        </mxCell>
        <mxCell id="LJdBZqf7PGFSziv4PStR-43" style="edgeStyle=orthogonalEdgeStyle;rounded=1;orthogonalLoop=1;jettySize=auto;html=1;exitX=0.5;exitY=1;exitDx=0;exitDy=0;entryX=0.5;entryY=0;entryDx=0;entryDy=0;strokeWidth=2;fontStyle=1;endArrow=blockThin;endFill=1;startArrow=none;startFill=0;" parent="1" source="Yrw_5gS3c1wIbg4zPTFx-1" target="qDFyCuyVWxihaTcqMEYJ-46" edge="1">
          <mxGeometry relative="1" as="geometry">
            <mxPoint x="-547" y="310" as="targetPoint" />
            <Array as="points">
              <mxPoint x="-565" y="210" />
              <mxPoint x="-565" y="210" />
            </Array>
          </mxGeometry>
        </mxCell>
        <mxCell id="LJdBZqf7PGFSziv4PStR-44" style="edgeStyle=orthogonalEdgeStyle;rounded=1;orthogonalLoop=1;jettySize=auto;html=1;exitX=0.5;exitY=1;exitDx=0;exitDy=0;entryX=0.5;entryY=0;entryDx=0;entryDy=0;strokeWidth=2;fontStyle=1;endArrow=blockThin;endFill=1;startArrow=none;startFill=0;" parent="1" source="Yrw_5gS3c1wIbg4zPTFx-1" target="qDFyCuyVWxihaTcqMEYJ-33" edge="1">
          <mxGeometry relative="1" as="geometry">
            <Array as="points">
              <mxPoint x="-565" y="240" />
              <mxPoint x="-469" y="240" />
            </Array>
          </mxGeometry>
        </mxCell>
        <mxCell id="LJdBZqf7PGFSziv4PStR-56" value="n= 9" style="text;html=1;strokeColor=none;fillColor=none;align=center;verticalAlign=middle;whiteSpace=wrap;rounded=0;fontStyle=1;strokeWidth=2;" parent="1" vertex="1">
          <mxGeometry x="-380" y="305.12" width="79.11" height="25" as="geometry" />
        </mxCell>
        <mxCell id="LJdBZqf7PGFSziv4PStR-62" style="edgeStyle=orthogonalEdgeStyle;rounded=1;orthogonalLoop=1;jettySize=auto;html=1;exitX=1;exitY=0.5;exitDx=0;exitDy=0;entryX=0.5;entryY=0;entryDx=0;entryDy=0;endArrow=blockThin;endFill=1;strokeWidth=2;fontStyle=1;startArrow=none;startFill=0;" parent="1" source="LJdBZqf7PGFSziv4PStR-58" target="LJdBZqf7PGFSziv4PStR-35" edge="1">
          <mxGeometry relative="1" as="geometry">
            <Array as="points">
              <mxPoint x="-216" y="221" />
              <mxPoint x="-216" y="267" />
            </Array>
          </mxGeometry>
        </mxCell>
        <mxCell id="LJdBZqf7PGFSziv4PStR-58" value="Cases with at least five longitudinal measures" style="rounded=1;whiteSpace=wrap;html=1;fontStyle=1;spacingLeft=6;spacingBottom=0;spacingRight=7;strokeWidth=2;" parent="1" vertex="1">
          <mxGeometry x="-380" y="174.56" width="100" height="92.22" as="geometry" />
        </mxCell>
        <mxCell id="LJdBZqf7PGFSziv4PStR-66" style="edgeStyle=orthogonalEdgeStyle;rounded=1;orthogonalLoop=1;jettySize=auto;html=1;dashed=1;strokeWidth=2;fontStyle=1;endArrow=none;endFill=0;startArrow=none;startFill=0;exitX=0.691;exitY=1.027;exitDx=0;exitDy=0;exitPerimeter=0;" parent="1" source="qDFyCuyVWxihaTcqMEYJ-33" edge="1">
          <mxGeometry relative="1" as="geometry">
            <mxPoint x="-455" y="349" as="sourcePoint" />
            <mxPoint x="-410" y="362" as="targetPoint" />
            <Array as="points">
              <mxPoint x="-456" y="362" />
            </Array>
          </mxGeometry>
        </mxCell>
        <mxCell id="LJdBZqf7PGFSziv4PStR-35" value="Non-dementia Conversion" style="rounded=1;whiteSpace=wrap;html=1;fontStyle=1;strokeWidth=2;" parent="1" vertex="1">
          <mxGeometry x="-262.67" y="519" width="92.67" height="60" as="geometry" />
        </mxCell>
        <mxCell id="LJdBZqf7PGFSziv4PStR-71" style="edgeStyle=orthogonalEdgeStyle;rounded=1;orthogonalLoop=1;jettySize=auto;html=1;exitX=0.75;exitY=1;exitDx=0;exitDy=0;strokeWidth=2;fontStyle=1;endArrow=blockThin;endFill=1;startArrow=none;startFill=0;entryX=0;entryY=0.5;entryDx=0;entryDy=0;" parent="1" edge="1">
          <mxGeometry relative="1" as="geometry">
            <mxPoint x="-539.9825000000003" y="190.0000000000002" as="sourcePoint" />
            <mxPoint x="-383" y="215.56000000000014" as="targetPoint" />
            <Array as="points">
              <mxPoint x="-540" y="215.22" />
              <mxPoint x="-413" y="215.22" />
            </Array>
          </mxGeometry>
        </mxCell>
        <mxCell id="8oZCdKd4IrshZltbQGv5-1" value="n= 281" style="text;html=1;strokeColor=none;fillColor=none;align=center;verticalAlign=middle;whiteSpace=wrap;rounded=0;fontStyle=1;strokeWidth=2;" parent="1" vertex="1">
          <mxGeometry x="-235.33333333333331" y="491.22" width="85.33333333333333" height="20" as="geometry" />
        </mxCell>
        <mxCell id="dkCTU4FzcxiOdmrPTIT_-2" value="Dementia Conversion" style="rounded=1;whiteSpace=wrap;html=1;fontStyle=1;strokeWidth=2;" vertex="1" parent="1">
          <mxGeometry x="-390" y="519" width="82.67" height="60" as="geometry" />
        </mxCell>
        <mxCell id="dkCTU4FzcxiOdmrPTIT_-6" style="edgeStyle=orthogonalEdgeStyle;rounded=1;orthogonalLoop=1;jettySize=auto;html=1;entryX=0.5;entryY=0;entryDx=0;entryDy=0;strokeWidth=2;fontStyle=1;endArrow=blockThin;endFill=1;exitX=1;exitY=0.5;exitDx=0;exitDy=0;" edge="1" parent="1" source="qDFyCuyVWxihaTcqMEYJ-38" target="dkCTU4FzcxiOdmrPTIT_-2">
          <mxGeometry relative="1" as="geometry">
            <Array as="points">
              <mxPoint x="-349" y="416" />
              <mxPoint x="-349" y="480" />
              <mxPoint x="-349" y="480" />
            </Array>
            <mxPoint x="-400" y="437" as="sourcePoint" />
            <mxPoint x="-521.2033333333331" y="519.22" as="targetPoint" />
          </mxGeometry>
        </mxCell>
        <mxCell id="dkCTU4FzcxiOdmrPTIT_-7" value="n= 44" style="text;html=1;strokeColor=none;fillColor=none;align=center;verticalAlign=middle;whiteSpace=wrap;rounded=0;fontStyle=1;strokeWidth=2;" vertex="1" parent="1">
          <mxGeometry x="-365.33333333333337" y="491.22" width="85.33333333333333" height="20" as="geometry" />
        </mxCell>
        <mxCell id="dkCTU4FzcxiOdmrPTIT_-10" style="edgeStyle=orthogonalEdgeStyle;rounded=1;orthogonalLoop=1;jettySize=auto;html=1;exitX=1;exitY=0.5;exitDx=0;exitDy=0;strokeWidth=2;fontStyle=1;endArrow=blockThin;endFill=1;startArrow=none;startFill=0;entryX=0;entryY=0.5;entryDx=0;entryDy=0;dashed=1;" edge="1" parent="1" source="Yrw_5gS3c1wIbg4zPTFx-1" target="dkCTU4FzcxiOdmrPTIT_-11">
          <mxGeometry relative="1" as="geometry">
            <mxPoint x="-476.9625000000003" y="110.00000000000045" as="sourcePoint" />
            <mxPoint x="-340" y="136" as="targetPoint" />
            <Array as="points">
              <mxPoint x="-420" y="160" />
              <mxPoint x="-420" y="136" />
              <mxPoint x="-250" y="136" />
            </Array>
          </mxGeometry>
        </mxCell>
        <mxCell id="dkCTU4FzcxiOdmrPTIT_-11" value="Cases without MCI/Dementia and lacking multiple longitudinal outcomes" style="rounded=1;whiteSpace=wrap;html=1;fontStyle=1;spacingLeft=6;spacingBottom=0;spacingRight=7;strokeWidth=2;" vertex="1" parent="1">
          <mxGeometry x="-242.67" y="90" width="100" height="92.22" as="geometry" />
        </mxCell>
        <mxCell id="dkCTU4FzcxiOdmrPTIT_-12" value="n= 74&amp;nbsp;" style="text;html=1;strokeColor=none;fillColor=none;align=center;verticalAlign=middle;whiteSpace=wrap;rounded=0;fontStyle=1;strokeWidth=2;" vertex="1" parent="1">
          <mxGeometry x="-200.00333333333333" y="70" width="85.33333333333333" height="20" as="geometry" />
        </mxCell>
        <mxCell id="dkCTU4FzcxiOdmrPTIT_-13" value="Cognitive Impairment Outcome" style="text;html=1;strokeColor=none;fillColor=none;align=center;verticalAlign=middle;whiteSpace=wrap;rounded=0;fontStyle=1;strokeWidth=2;" vertex="1" parent="1">
          <mxGeometry x="-740" y="599" width="210" height="20" as="geometry" />
        </mxCell>
        <mxCell id="dkCTU4FzcxiOdmrPTIT_-14" value="Dementia Conversion Outcome" style="text;html=1;strokeColor=none;fillColor=none;align=center;verticalAlign=middle;whiteSpace=wrap;rounded=0;fontStyle=1;strokeWidth=2;" vertex="1" parent="1">
          <mxGeometry x="-427.67" y="599" width="210" height="20" as="geometry" />
        </mxCell>
      </root>
    </mxGraphModel>
  </diagram>
</mxfile>
